<?xml version="1.0" encoding="UTF-8"?>
<svg id="MainLogo" xmlns="http://www.w3.org/2000/svg" viewBox="0 0 500 500">
  <defs>
    <style>
      .cls-1 {
        opacity: .6;
      }

      .cls-2 {
        fill: #65cde5;
      }

      .cls-3 {
        fill: #37cc85;
      }

      .cls-4 {
        fill: #c93d3d;
      }

      .cls-5 {
        fill: #e9ff8a;
      }
    </style>
  </defs>
  <g class="cls-1">
    <path d="m332.01,321.48c-34.46,3.22-93.38,4.13-116.95-3.9-1.72-.64-3.44-1.4-5.15-2.27,6.73,6.9,14.59,12.37,22.52,15.29,23.56,8.03,82.49,7.12,116.95,3.9,6.31-.59,12.39.38,17.93,2.51-8.04-10.54-21.13-16.85-35.3-15.53Z"/>
    <path d="m279.97,223.5c-7.34-9.57-18.86-15.76-31.85-15.76h-33.13c-5.38,3.83-10.1,8.31-13.6,13.03h64.11c5.11,0,9.98.99,14.48,2.73Z"/>
    <path d="m114.17,301.1h-5c-3.1,0-6.11-.39-9.01-1.05.61,1.88,1.25,3.76,1.95,5.61,11.4,30.23,33.29,56.69,59.95,73.71-18.69-16.25-33.78-37.33-42.58-60.68-2.15-5.7-3.89-11.59-5.32-17.58Z"/>
    <path d="m109.17,220.77h6.45c2.37-8.89,5.43-17.62,9.26-26,14.86-32.51,47.12-60.12,84.2-72.05,45.78-14.79,129.58-12.17,138.99-11.82,4.52.17,8.81,1.12,12.81,2.66-6.95-9.15-17.8-15.23-30.18-15.68-9.4-.35-93.21-2.97-138.99,11.82-37.08,11.93-69.35,39.54-84.2,72.05-3.83,8.38-6.89,17.1-9.26,26h-6.45c-22.18,0-40.16,17.98-40.16,40.16h0c0,17.07,10.67,31.62,25.68,37.43-5.19-6.77-8.32-15.21-8.32-24.4h0c0-22.18,17.98-40.16,40.16-40.16Z"/>
  </g>
  <g>
    <path class="cls-5" d="m214.81,317.58c8.25,2.81,20.84,4.52,35.19,5.43v-35c-.71.04-1.42.06-2.13.06h-66.56c7.98,13.37,20.66,24.77,33.51,29.51Z"/>
    <path class="cls-5" d="m188.49,392.56l-.51-.18c-38.17-13.84-71.16-47.07-86.12-86.73-2.15-5.7-3.93-11.58-5.36-17.58h-4.96c-21.48,0-39.02-16.86-40.11-38.07H7.5c0,133.93,108.57,242.5,242.5,242.5v-89.91c-22.18-1.21-44.43-4.09-61.51-10.03Z"/>
  </g>
  <path class="cls-2" d="m287.98,250c-1.05,20.5-17.48,36.94-37.98,38.01v35c26.64,1.68,59.36.57,81.76-1.53,21.85-2.03,41.21,14,43.26,35.84,2.05,21.84-13.98,41.21-35.82,43.27-5.13.48-30.52,2.72-60.76,2.72-9.18,0-18.8-.21-28.44-.73v89.91c133.93,0,242.5-108.57,242.5-242.5h-204.52Z"/>
  <path class="cls-4" d="m330.44,97.87c21.93.81,39.05,19.24,38.24,41.17-.81,21.93-19.2,39.1-41.17,38.24-19.85-.72-51.32-.44-77.51,2.09v28.43c21.19,1.11,38.03,18.64,38.03,40.11h0c0,.7-.02,1.4-.05,2.1h204.52c0-133.93-108.57-242.5-242.5-242.5v92.1c37.65-3.12,74.4-1.96,80.44-1.73Z"/>
  <g>
    <path class="cls-3" d="m215.84,185.32c-12.75,4.1-24.91,12.78-32.08,22.42h64.11c.72,0,1.43.02,2.13.06v-28.43c-13.6,1.32-25.77,3.24-34.16,5.95Z"/>
    <path class="cls-3" d="m107.26,181.74c14.86-32.51,47.12-60.12,84.2-72.05,16.37-5.29,37.59-8.35,58.54-10.09V7.5C116.07,7.5,7.5,116.07,7.5,250h43.94c-.04-.69-.05-1.39-.05-2.1h0c0-22.18,17.98-40.16,40.16-40.16h6.41c2.37-8.9,5.47-17.61,9.3-26Z"/>
  </g>
</svg>