<?xml version="1.0" encoding="UTF-8"?>
<svg id="MainLogo" xmlns="http://www.w3.org/2000/svg" viewBox="0 0 500 500">
  <defs>
    <style>
      .cls-1 {
        fill: #e23333;
      }

      .cls-2 {
        fill: #fff;
      }

      .cls-3 {
        opacity: .6;
      }

      .cls-4 {
        fill: #45c7f4;
      }

      .cls-5 {
        fill: #f1ff66;
      }

      .cls-6 {
        fill: #05e082;
      }
    </style>
  </defs>
  <g>
    <path class="cls-6" d="m244,23.5C118.91,23.5,17.5,124.91,17.5,250h226.5V23.5Z"/>
    <path class="cls-5" d="m27.5,250c0,125.09,101.41,226.5,226.5,226.5v-226.5H27.5Z"/>
    <path class="cls-4" d="m213,476.5c125.09,0,226.5-101.41,226.5-226.5h-226.5v226.5Z"/>
    <path class="cls-1" d="m213,23.5v226.5h226.5c0-125.09-101.41-226.5-226.5-226.5Z"/>
  </g>
  <g class="cls-3">
    <path d="m332.01,321.48c-34.46,3.22-93.38,4.13-116.95-3.9-1.72-.64-3.44-1.4-5.15-2.27,6.73,6.9,14.59,12.37,22.52,15.29,23.56,8.03,82.49,7.12,116.95,3.9,6.31-.59,12.39.38,17.93,2.51-8.04-10.54-21.13-16.85-35.3-15.53Z"/>
    <path d="m279.97,223.5c-7.34-9.57-18.86-15.76-31.85-15.76h-33.13c-5.38,3.83-10.1,8.31-13.6,13.03h64.11c5.11,0,9.98.99,14.48,2.73Z"/>
    <path d="m114.17,301.1h-5c-3.1,0-6.11-.39-9.01-1.05.61,1.88,1.25,3.76,1.95,5.61,11.4,30.23,33.29,56.69,59.95,73.71-18.69-16.25-33.78-37.33-42.58-60.68-2.15-5.7-3.89-11.59-5.32-17.58Z"/>
    <path d="m109.17,220.77h6.45c2.37-8.89,5.43-17.62,9.26-26,14.86-32.51,47.12-60.12,84.2-72.05,45.78-14.79,129.58-12.17,138.99-11.82,4.52.17,8.81,1.12,12.81,2.66-6.95-9.15-17.8-15.23-30.18-15.68-9.4-.35-93.21-2.97-138.99,11.82-37.08,11.93-69.35,39.54-84.2,72.05-3.83,8.38-6.89,17.1-9.26,26h-6.45c-22.18,0-40.16,17.98-40.16,40.16h0c0,17.07,10.67,31.62,25.68,37.43-5.19-6.77-8.32-15.21-8.32-24.4h0c0-22.18,17.98-40.16,40.16-40.16Z"/>
  </g>
  <path class="cls-2" d="m249.7,8C118.21,8,11.62,116.32,11.62,249.94s106.59,241.94,238.08,241.94,238.08-108.32,238.08-241.94S381.18,8,249.7,8Zm89.51,392.6c-5.13.48-30.52,2.72-60.76,2.72s-65.45-2.25-89.96-10.76l-.51-.18c-38.17-13.84-71.16-47.07-86.12-86.73-2.15-5.7-3.89-11.59-5.32-17.58h-5c-22.18,0-40.16-17.98-40.16-40.16h0c0-22.18,17.98-40.16,40.16-40.16h6.45c2.37-8.89,5.43-17.62,9.26-26,14.86-32.51,47.12-60.12,84.2-72.05,45.78-14.79,129.58-12.17,138.99-11.82,21.93.81,39.05,19.24,38.24,41.17-.81,21.93-19.2,39.1-41.17,38.24-30.16-1.1-87.14.12-111.67,8.04-12.75,4.1-24.91,12.78-32.08,22.42h64.11c22.18,0,40.16,17.98,40.16,40.16h0c0,22.18-17.98,40.17-40.16,40.17h-66.55c7.98,13.36,20.65,24.77,33.5,29.51,23.56,8.03,82.49,7.12,116.95,3.9,21.85-2.03,41.21,14,43.26,35.84,2.05,21.84-13.98,41.21-35.82,43.27Z"/>
  <path class="cls-2" d="m249.7,8C118.21,8,11.62,116.32,11.62,249.94s106.59,241.94,238.08,241.94,238.08-108.32,238.08-241.94S381.18,8,249.7,8Zm89.51,392.6c-5.13.48-30.52,2.72-60.76,2.72s-65.45-2.25-89.96-10.76l-.51-.18c-38.17-13.84-71.16-47.07-86.12-86.73-2.15-5.7-3.89-11.59-5.32-17.58h-5c-22.18,0-40.16-17.98-40.16-40.16h0c0-22.18,17.98-40.16,40.16-40.16h6.45c2.37-8.89,5.43-17.62,9.26-26,14.86-32.51,47.12-60.12,84.2-72.05,45.78-14.79,129.58-12.17,138.99-11.82,21.93.81,39.05,19.24,38.24,41.17-.81,21.93-19.2,39.1-41.17,38.24-30.16-1.1-87.14.12-111.67,8.04-12.75,4.1-24.91,12.78-32.08,22.42h64.11c22.18,0,40.16,17.98,40.16,40.16h0c0,22.18-17.98,40.17-40.16,40.17h-66.55c7.98,13.36,20.65,24.77,33.5,29.51,23.56,8.03,82.49,7.12,116.95,3.9,21.85-2.03,41.21,14,43.26,35.84,2.05,21.84-13.98,41.21-35.82,43.27Z"/>
</svg>